<svg width="19" height="11" viewBox="0 0 19 11" fill="none" xmlns="http://www.w3.org/2000/svg">
<path d="M2.30682 10.321H-2.75299e-06L3.51491 0.139204H6.28906L9.799 10.321H7.49218L4.94176 2.46591H4.86221L2.30682 10.321ZM2.16264 6.31889H7.6115V7.99929H2.16264V6.31889ZM16.3155 3.06747C16.2757 2.66643 16.1051 2.35488 15.8034 2.13281C15.5018 1.91075 15.0925 1.79971 14.5755 1.79971C14.2241 1.79971 13.9275 1.84943 13.6855 1.94886C13.4436 2.04498 13.258 2.17921 13.1287 2.35156C13.0028 2.52391 12.9398 2.71946 12.9398 2.93821C12.9332 3.1205 12.9713 3.27959 13.0542 3.41548C13.1403 3.55137 13.258 3.66903 13.4071 3.76847C13.5563 3.86458 13.7286 3.9491 13.9242 4.02202C14.1197 4.09162 14.3285 4.15128 14.5506 4.20099L15.4654 4.41974C15.9095 4.51918 16.3172 4.65175 16.6884 4.81747C17.0596 4.98319 17.3811 5.18703 17.6529 5.42898C17.9247 5.67093 18.1351 5.95597 18.2843 6.28409C18.4367 6.61222 18.5146 6.9884 18.5179 7.41264C18.5146 8.03575 18.3555 8.57599 18.0407 9.03338C17.7291 9.48745 17.2783 9.84043 16.6884 10.0923C16.1017 10.3409 15.3941 10.4652 14.5655 10.4652C13.7435 10.4652 13.0276 10.3393 12.4178 10.0874C11.8113 9.83546 11.3373 9.46259 10.9959 8.96875C10.6578 8.47159 10.4805 7.85677 10.464 7.12429H12.547C12.5703 7.46567 12.668 7.75071 12.8404 7.9794C13.016 8.20478 13.2497 8.37547 13.5414 8.49148C13.8363 8.60417 14.1694 8.66051 14.5407 8.66051C14.9052 8.66051 15.2218 8.60748 15.4902 8.50142C15.762 8.39536 15.9725 8.24787 16.1216 8.05895C16.2708 7.87003 16.3453 7.65293 16.3453 7.40767C16.3453 7.17898 16.2774 6.98674 16.1415 6.83097C16.0089 6.67519 15.8134 6.54261 15.5549 6.43324C15.2997 6.32386 14.9864 6.22443 14.6152 6.13494L13.5066 5.85653C12.6481 5.64773 11.9703 5.32126 11.4732 4.87713C10.976 4.433 10.7291 3.83475 10.7324 3.08239C10.7291 2.46591 10.8932 1.92732 11.2246 1.46662C11.5594 1.00592 12.0184 0.646306 12.6017 0.387783C13.1851 0.12926 13.8479 -1.07288e-06 14.5904 -1.07288e-06C15.3461 -1.07288e-06 16.0056 0.12926 16.5691 0.387783C17.1358 0.646306 17.5766 1.00592 17.8915 1.46662C18.2064 1.92732 18.3688 2.46094 18.3787 3.06747H16.3155Z" fill="#949494"/>
</svg>
